<svg height="420pt" viewBox="-10 0 420 420.9" width="420pt" xmlns="http://www.w3.org/2000/svg"><path d="m241.351562 88.699219c0 48.988281-39.714843 88.699219-88.703124 88.699219-48.984376 0-88.699219-39.710938-88.699219-88.699219s39.714843-88.699219 88.699219-88.699219c48.988281 0 88.703124 39.710938 88.703124 88.699219zm0 0"/><path d="m234.648438 225.398438h166v16.5h-166zm0 0"/><path d="m220.648438 282.601562v-31.601562c-21.070313-10.449219-44.28125-15.855469-67.796876-15.800781h-.300781c-41.101562.101562-79.402343 16.101562-107.699219 45.101562-27.203124 28-42.902343 65.699219-44.402343 107l290.5-.5v-40.800781l-67.898438-58.199219c-1.550781-1.28125-2.433593-3.191406-2.402343-5.199219zm0 0"/><path d="m234.648438 279.398438 67.902343 58.203124c1.554688 1.316407 2.433594 3.261719 2.398438 5.296876v78l25.402343-12.699219v-65.398438c.007813-2.027343.882813-3.957031 2.398438-5.300781l67.898438-58.199219v-23.601562h-166zm0 0"/></svg>